<?xml version="1.0" encoding="UTF-8"?>
<svg width="32px" height="32px" viewBox="0 0 32 32" version="1.1" xmlns="http://www.w3.org/2000/svg" xmlns:xlink="http://www.w3.org/1999/xlink">
    <title>nav_meeting_lock_32px</title>
    <g id="new" stroke="none" stroke-width="1" fill="none" fill-rule="evenodd">
        <g id="00默认展开都在Loading" transform="translate(-567.000000, -28.000000)" fill="#FFFFFF">
            <g id="nav_meeting_lock" transform="translate(567.000000, 28.000000)">
                <path d="M13,13 L13,10 C13,8.3425 14.3425,7 16,7 C17.6575,7 19,8.3425 19,10 L19,13 L13,13 Z M17.6083333,21.536 L17.6083333,23.936 C17.6083333,24.52 17.1083333,25 16.5,25 C15.8916667,25 15.3916667,24.52 15.3916667,23.936 L15.3916667,21.536 C14.5666667,21.144 14,20.344 14,19.4 C14,18.072 15.1166667,17 16.5,17 C17.8833333,17 19,18.072 19,19.4 C19,20.344 18.4333333,21.144 17.6083333,21.536 L17.6083333,21.536 Z M25.4285714,13 L22.2857143,13 L22.2857143,10 C22.2857143,6.7 19.4571429,4 16,4 C12.5428571,4 9.71428571,6.7 9.71428571,10 L9.71428571,13 L6.57142857,13 C5.70714286,13 5,13.675 5,14.5 L5,26.5 C5,27.325 5.70714286,28 6.57142857,28 L25.4285714,28 C26.2928571,28 27,27.325 27,26.5 L27,14.5 C27,13.675 26.2928571,13 25.4285714,13 L25.4285714,13 Z"></path>
            </g>
        </g>
    </g>
</svg>