<?xml version="1.0" encoding="UTF-8"?>
<svg width="20px" height="20px" viewBox="0 0 20 20" version="1.1" xmlns="http://www.w3.org/2000/svg" xmlns:xlink="http://www.w3.org/1999/xlink">
    <title>小程序参会人箭头</title>
    <g id="页面-1" stroke="none" stroke-width="1" fill="none" fill-rule="evenodd">
        <g id="参会人列表置顶" transform="translate(-560.000000, -497.000000)" fill-rule="nonzero">
            <g id="小程序参会人箭头" transform="translate(560.000000, 497.000000)">
                <rect id="矩形备份-3" fill="#2ADE1B" opacity="0" x="0" y="0" width="20" height="20"></rect>
                <path d="M16.2503336,10.7208331 L7.4,19.2307692 C6.95318815,19.660396 6.24681185,19.660396 5.8,19.2307692 C5.37516558,18.8222746 5.36191956,18.1467279 5.7704142,17.7218935 C5.78008183,17.7118392 5.78994566,17.7019753 5.8,17.6923077 L13.8008,9.99923077 L13.8008,9.99923077 L5.80006987,2.30761963 C5.37523697,1.89920072 5.3619308,1.22371666 5.77034971,0.798883751 C5.78003795,0.788806155 5.78992328,0.778919919 5.8,0.769230769 C6.24681185,0.339603992 6.95318815,0.339603992 7.4,0.769230769 L16.2503336,9.27916694 C16.6484387,9.66196031 16.6608513,10.2950036 16.278058,10.6931087 C16.2689986,10.7025305 16.2597554,10.7117737 16.2503336,10.7208331 Z" id="路径" fill="#666666"></path>
            </g>
        </g>
    </g>
</svg>