<?xml version="1.0" encoding="UTF-8"?>
<svg width="36px" height="36px" viewBox="0 0 36 36" version="1.1" xmlns="http://www.w3.org/2000/svg" xmlns:xlink="http://www.w3.org/1999/xlink">
    <title>X_icon</title>
    <g id="X_icon" stroke="none" stroke-width="1" fill="none" fill-rule="evenodd">
        <g id="更多">
            <rect id="bg" fill-opacity="0" fill="#00AAEE" x="0" y="0" width="36" height="36"></rect>
            <g id="元素/更多" transform="translate(4.909091, 5.727273)" fill="#FFFFFF" fill-rule="nonzero">
                <g id="delete">
                    <path d="M25.055108,2.14295518 L24.7672835,2.33673666 L3.00494174,24.0991135 C2.50414037,24.5998797 1.58705337,24.4947624 1.08628716,23.9939611 C0.614911613,23.5226207 0.534614644,22.7230612 0.950513566,22.2193418 L1.03365819,22.1279003 L11.234713,12.0289745 L1.49656108,2.29092801 C1.02518553,1.81958762 0.924322129,1.0435125 1.34022105,0.539722846 L1.42336568,0.44831649 C1.89474123,-0.0230942147 2.66796869,-0.0770591212 3.17168803,0.338804644 L3.26316469,0.422019585 L13.001387,10.1599958 L22.7960351,0.365488269 C23.2968364,-0.135313095 24.2138883,-0.0301606292 24.7147248,0.470605579 C25.1861004,0.941981127 25.4710069,1.63920069 25.055108,2.14295518 Z M25.1380769,24.0900081 C24.6325294,24.5955555 23.8574387,24.6513837 23.3504849,24.2387192 L23.258727,24.1558206 L20.0810554,20.978149 L12.0909091,13.2727273 C11.5901429,12.7719611 11.4149591,11.9305304 11.9520769,11.3934126 C12.4576244,10.88783 13.2327503,10.8319666 13.7396688,11.2447015 L13.8314619,11.3276 L24.9992447,22.2106582 C25.5000812,22.7114596 25.6752298,23.5528551 25.1380769,24.0900081 Z" id="形状"></path>
                </g>
            </g>
        </g>
    </g>
</svg>